<svg width="382" height="137" viewBox="0 0 382 137" fill="none" xmlns="http://www.w3.org/2000/svg">
<path d="M248.3 105.2C245.633 105.2 243.267 104.633 241.2 103.5C239.133 102.367 237.5 100.7 236.3 98.5C235.167 96.2333 234.6 93.5 234.6 90.3C234.6 85.9 235.367 81.7333 236.9 77.8C238.433 73.8 240.433 70.3 242.9 67.3C245.367 64.3 248.067 61.9333 251 60.2C253.933 58.4667 256.833 57.6 259.7 57.6C262.7 57.6 265.033 58.2333 266.7 59.5C268.367 60.7667 269.2 62.6667 269.2 65.2C269.2 66.9333 268.767 68.7 267.9 70.5C267.1 72.3 265.6 74.1333 263.4 76C261.267 77.8 258.233 79.5667 254.3 81.3C250.433 83.0333 245.433 84.7333 239.3 86.4L238.9 84.6C245.1 82.8667 249.967 80.9667 253.5 78.9C257.1 76.7667 259.633 74.5333 261.1 72.2C262.633 69.8667 263.4 67.5333 263.4 65.2C263.4 63.6667 263.033 62.3667 262.3 61.3C261.633 60.1667 260.533 59.6 259 59.6C257.267 59.6 255.333 60.3667 253.2 61.9C251.133 63.3667 249.167 65.4333 247.3 68.1C245.433 70.7 243.9 73.7667 242.7 77.3C241.5 80.7667 240.9 84.5333 240.9 88.6C240.9 92.4667 241.9 95.3667 243.9 97.3C245.967 99.2333 248.433 100.2 251.3 100.2C252.967 100.2 254.6 99.8333 256.2 99.1C257.867 98.3 259.367 97.3333 260.7 96.2C262.1 95.0667 263.267 93.9667 264.2 92.9L265.4 93.7C264.467 95.3667 263.4 96.9 262.2 98.3C261 99.7 259.667 100.933 258.2 102C256.8 103 255.267 103.767 253.6 104.3C252 104.9 250.233 105.2 248.3 105.2ZM281.212 105.2C279.612 105.2 278.145 104.8 276.812 104C275.478 103.133 274.412 101.833 273.612 100.1C272.812 98.3 272.412 96 272.412 93.2C272.412 90.2667 272.945 87.1667 274.012 83.9C275.145 80.5667 276.645 77.3667 278.512 74.3C280.378 71.1667 282.478 68.3667 284.812 65.9C287.145 63.3667 289.578 61.3667 292.112 59.9C294.712 58.3667 297.245 57.6 299.712 57.6C300.912 57.6 302.078 57.8333 303.212 58.3C304.412 58.7 305.512 59.3333 306.512 60.2C307.578 61.0667 308.478 62.1 309.212 63.3L306.612 67.2C305.745 66.0667 304.578 64.9333 303.112 63.8C301.645 62.6 299.778 62 297.512 62C296.112 62 294.778 62.2333 293.512 62.7C292.245 63.1667 291.045 63.8333 289.912 64.7C288.845 65.5667 287.845 66.5667 286.912 67.7C285.178 69.7667 283.712 72.2 282.512 75C281.312 77.7333 280.412 80.5 279.812 83.3C279.212 86.1 278.912 88.6 278.912 90.8C278.912 93.6667 279.312 95.9667 280.112 97.7C280.912 99.4333 282.345 100.3 284.412 100.3C285.745 100.3 287.212 99.8667 288.812 99C290.412 98.0667 292.245 96.6333 294.312 94.7C296.445 92.7667 298.812 90.2333 301.412 87.1L302.212 87.6H302.012C299.878 90.8667 297.678 93.8333 295.412 96.5C293.145 99.1667 290.845 101.3 288.512 102.9C286.178 104.433 283.745 105.2 281.212 105.2ZM302.712 105.2C301.312 105.2 300.078 104.8 299.012 104C297.945 103.133 297.412 101.933 297.412 100.4C297.412 100 297.412 99.5333 297.412 99C297.478 98.4667 297.612 97.6 297.812 96.4C298.078 95.1333 298.478 93.3333 299.012 91L299.112 90.5L304.912 61.7L305.412 61.3L311.112 56.8L311.912 57.6L304.512 93.8C304.312 94.8667 304.145 95.7333 304.012 96.4C303.878 97.0667 303.812 97.7667 303.812 98.5C303.812 98.9667 303.945 99.3667 304.212 99.7C304.545 99.9667 304.945 100.1 305.412 100.1C306.612 100.1 308.012 99.5 309.612 98.3C311.212 97.1 312.878 95.5 314.612 93.5L315.812 94.5C314.812 96.1667 313.678 97.8333 312.412 99.5C311.145 101.167 309.712 102.533 308.112 103.6C306.512 104.667 304.712 105.2 302.712 105.2ZM322.03 61.2V59.6L333.63 58.2V58.8H349.43L348.93 61.2H333.13H332.83H322.03ZM328.03 105.2C326.697 105.2 325.564 104.8 324.63 104C323.764 103.133 323.33 101.967 323.33 100.5C323.33 99.9 323.397 99.1667 323.53 98.3C323.73 97.4333 323.997 96.1333 324.33 94.4L331.53 59.6L339.23 43.6H341.03L330.53 93.8C330.33 94.8667 330.13 95.7333 329.93 96.4C329.797 97.0667 329.73 97.7667 329.73 98.5C329.73 98.9667 329.864 99.3667 330.13 99.7C330.464 99.9667 330.864 100.1 331.33 100.1C332.13 100.1 333.03 99.8333 334.03 99.3C335.03 98.7667 336.064 98 337.13 97C338.264 96 339.397 94.8333 340.53 93.5L341.73 94.5C340.73 96.1667 339.53 97.8333 338.13 99.5C336.797 101.167 335.297 102.533 333.63 103.6C331.964 104.667 330.097 105.2 328.03 105.2ZM359.544 105.2C357.544 105.2 355.71 104.867 354.044 104.2C352.377 103.533 351.01 102.6 349.944 101.4C348.877 100.133 348.244 98.6333 348.044 96.9C348.177 95.9667 348.544 95.2333 349.144 94.7C349.744 94.1667 350.477 93.9 351.344 93.9C352.61 93.9 353.577 94.2667 354.244 95C354.91 95.7333 355.41 96.6 355.744 97.6L358.144 103.8L353.444 102.4C354.444 102.667 355.344 102.867 356.144 103C357.01 103.133 358.144 103.2 359.544 103.2C361.477 103.2 363.177 102.767 364.644 101.9C366.11 101.033 367.277 99.9 368.144 98.5C369.01 97.0333 369.444 95.5 369.444 93.9C369.444 91.3667 368.644 89.3 367.044 87.7C365.51 86.1 363.81 84.5667 361.944 83.1C360.677 82.1 359.444 81.0333 358.244 79.9C357.044 78.7667 356.077 77.5 355.344 76.1C354.61 74.6333 354.244 72.9 354.244 70.9C354.244 68.3667 354.877 66.1 356.144 64.1C357.41 62.1 359.11 60.5333 361.244 59.4C363.444 58.2 365.91 57.6 368.644 57.6C370.377 57.6 372.01 57.8667 373.544 58.4C375.077 58.8667 376.377 59.6667 377.444 60.8C378.51 61.8667 379.244 63.3333 379.644 65.2C379.444 66.0667 379.044 66.7333 378.444 67.2C377.844 67.6667 377.144 67.9 376.344 67.9C375.21 67.9 374.277 67.5667 373.544 66.9C372.877 66.1667 372.244 65.1333 371.644 63.8L369.544 58.9L372.844 60.1C372.31 59.9667 371.71 59.8667 371.044 59.8C370.444 59.6667 369.677 59.6 368.744 59.6C365.744 59.6 363.41 60.5667 361.744 62.5C360.077 64.3667 359.244 66.3667 359.244 68.5C359.244 70.7667 359.91 72.6667 361.244 74.2C362.644 75.7333 364.21 77.1667 365.944 78.5C367.344 79.5667 368.71 80.7 370.044 81.9C371.444 83.1 372.577 84.4667 373.444 86C374.377 87.5333 374.844 89.4 374.844 91.6C374.844 94.2 374.177 96.5333 372.844 98.6C371.51 100.667 369.677 102.3 367.344 103.5C365.077 104.633 362.477 105.2 359.544 105.2Z" fill="#09090B"/>
<path d="M154.811 23.2001C154.072 23.9806 153.72 25.0472 153.694 26.3526C153.663 27.9094 154.123 29.7598 154.954 31.5793C156.615 35.2182 159.762 38.6958 162.958 39.7505L163.181 39.825L163.293 40.0357L172.439 57.38C173.583 57.9092 174.395 57.8755 174.878 57.5418C175.366 57.2056 175.709 56.4404 175.654 55.1099L154.811 23.2001ZM178.075 27.8675L169.989 33.5064C169.095 34.1299 168.924 34.9738 169.13 35.972L169.215 36.3851L168.868 36.6167L166.173 38.4023L167.644 40.6534L170.246 38.7315L170.584 38.4816L170.923 38.7196C171.783 39.3207 172.68 39.4768 173.51 38.8978L181.596 33.2589L180.896 32.1868L175.637 35.852L174.983 34.847L180.239 31.1815L179.492 30.0378L174.236 33.7034L173.579 32.6979L178.835 29.0324L178.075 27.8675ZM162.397 40.906L148.685 49.9976C148.166 51.1556 148.201 51.9488 148.508 52.4149C148.816 52.881 149.523 53.2048 150.742 53.1409L163.772 43.5145L162.397 40.906Z" fill="#F9BB1F"/>
<path d="M22 104V102.1L31.1 100.8H35.5L45.6 102.1V104H22ZM28.1 104C28.2333 102.4 28.3 100.367 28.3 97.9C28.3667 95.3667 28.4 92.8 28.4 90.2C28.4667 87.5333 28.5 85.1 28.5 82.9V79.1C28.5 77.1 28.5 75.3333 28.5 73.8C28.5 72.2667 28.4667 70.8333 28.4 69.5C28.4 68.1 28.3667 66.7 28.3 65.3L21.6 63.6V62L37.3 57.2L38.3 58.1V72.3V72.6V82.9C38.3 85.1 38.3 87.5333 38.3 90.2C38.3667 92.8 38.4333 95.3667 38.5 97.9C38.5667 100.367 38.6667 102.4 38.8 104H28.1ZM37.7 77.7L36.4 72.5H37.8C38.8667 69.0333 40.1333 66.2 41.6 64C43.0667 61.7333 44.7 60.0333 46.5 58.9C48.3 57.7667 50.2 57.2 52.2 57.2C53.9333 57.2 55.4 57.6333 56.6 58.5C57.8667 59.3 58.7 60.6333 59.1 62.5C58.9667 64.4333 58.3 65.9 57.1 66.9C55.9 67.9 54.5333 68.4 53 68.4C51.7333 68.4 50.5667 68.1 49.5 67.5C48.4333 66.9 47.4333 65.9 46.5 64.5L44.5 61.8L47.8 61.7C45.9333 62.7 44 64.6333 42 67.5C40.0667 70.3 38.6333 73.7 37.7 77.7ZM83.4508 105.3C79.5174 105.3 75.9508 104.4 72.7508 102.6C69.5508 100.733 67.0174 98.1 65.1508 94.7C63.2841 91.2333 62.3508 87.0333 62.3508 82.1C62.3508 76.9 63.3174 72.4667 65.2508 68.8C67.2508 65.0667 69.8174 62.2 72.9508 60.2C76.1508 58.2 79.5841 57.2 83.2508 57.2C86.6508 57.2 89.6508 57.9333 92.2508 59.4C94.9174 60.8667 96.9841 62.9 98.4508 65.5C99.9175 68.0333 100.651 71.0333 100.651 74.5C100.651 75.5667 100.584 76.4667 100.451 77.2C100.384 77.9333 100.251 78.6333 100.051 79.3H66.2508V77H85.7508C88.0841 77 89.6841 76.5667 90.5508 75.7C91.4174 74.8333 91.8508 73.3 91.8508 71.1C91.8508 68.5667 91.4841 66.4667 90.7508 64.8C90.0841 63.0667 89.1174 61.7667 87.8508 60.9C86.5841 60.0333 85.0841 59.6 83.3508 59.6C81.5508 59.6 79.8174 60.2667 78.1508 61.6C76.4841 62.9333 75.1174 65.1 74.0508 68.1C73.0508 71.0333 72.5508 75.0333 72.5508 80.1C72.5508 84.1 73.1841 87.5333 74.4508 90.4C75.7174 93.2667 77.4508 95.4667 79.6508 97C81.8508 98.5333 84.3508 99.3 87.1508 99.3C89.8841 99.3 92.2174 98.7333 94.1508 97.6C96.1508 96.4667 97.9174 95 99.4508 93.2L100.851 94.2C99.6508 96.8 98.1508 98.9333 96.3508 100.6C94.6175 102.2 92.6508 103.367 90.4508 104.1C88.2508 104.9 85.9174 105.3 83.4508 105.3ZM129.735 105.3C125.668 105.3 122.035 104.4 118.835 102.6C115.635 100.8 113.135 98.1667 111.335 94.7C109.535 91.1667 108.635 86.9 108.635 81.9C108.635 76.5 109.668 71.9667 111.735 68.3C113.868 64.6333 116.635 61.8667 120.035 60C123.435 58.1333 127.168 57.2 131.235 57.2C134.168 57.2 136.702 57.7333 138.835 58.8C141.035 59.8 142.768 61.2 144.035 63C145.302 64.7333 146.068 66.7 146.335 68.9C146.135 70.2333 145.635 71.2333 144.835 71.9C144.102 72.5667 143.068 72.9 141.735 72.9C140.402 72.9 139.235 72.4333 138.235 71.5C137.235 70.5 136.602 68.9333 136.335 66.8L135.035 59.1L139.035 61.9C137.902 60.9 136.702 60.2667 135.435 60C134.168 59.7333 132.968 59.6 131.835 59.6C129.235 59.6 126.968 60.4333 125.035 62.1C123.102 63.7 121.602 66.0333 120.535 69.1C119.468 72.1 118.935 75.7 118.935 79.9C118.935 83.5667 119.468 86.8667 120.535 89.8C121.602 92.7333 123.202 95.0667 125.335 96.8C127.535 98.4667 130.235 99.3 133.435 99.3C135.168 99.3 136.735 99.0667 138.135 98.6C139.602 98.0667 140.902 97.3667 142.035 96.5C143.235 95.5667 144.335 94.4667 145.335 93.2L146.835 94.2C145.635 96.7333 144.168 98.8333 142.435 100.5C140.768 102.167 138.868 103.367 136.735 104.1C134.602 104.9 132.268 105.3 129.735 105.3ZM152.762 104V102.1L161.862 100.8H166.262L175.162 102.1V104H152.762ZM158.862 104C158.995 102.4 159.062 100.367 159.062 97.9C159.128 95.3667 159.162 92.8 159.162 90.2C159.228 87.5333 159.262 85.1 159.262 82.9V79.1C159.262 76.1 159.262 73.6 159.262 71.6C159.262 69.5333 159.195 67.4333 159.062 65.3L152.362 63.6V62L168.462 57.2L169.462 58.1L169.062 71V82.9C169.062 85.1 169.062 87.5333 169.062 90.2C169.128 92.8 169.195 95.3667 169.262 97.9C169.328 100.367 169.428 102.4 169.562 104H158.862ZM164.062 48.1C162.395 48.1 160.962 47.5667 159.762 46.5C158.562 45.3667 157.962 43.9 157.962 42.1C157.962 40.3 158.562 38.8667 159.762 37.8C160.962 36.6667 162.395 36.1 164.062 36.1C165.795 36.1 167.228 36.6667 168.362 37.8C169.562 38.8667 170.162 40.2667 170.162 42C170.162 43.8667 169.562 45.3667 168.362 46.5C167.228 47.5667 165.795 48.1 164.062 48.1ZM180.008 129.3V127.4L189.108 126.1H193.408L203.508 127.4V129.3H180.008ZM186.108 129.3C186.241 127.633 186.308 125.567 186.308 123.1C186.374 120.7 186.408 118.167 186.408 115.5C186.474 112.833 186.508 110.4 186.508 108.2V79.1C186.508 77.1 186.508 75.3333 186.508 73.8C186.508 72.2667 186.474 70.8333 186.408 69.5C186.408 68.1 186.374 66.7 186.308 65.3L179.608 63.6V62L195.308 57.2L196.308 58.1V66.4V66.8V96.1L196.208 96.5V108.2C196.208 110.4 196.208 112.833 196.208 115.5C196.274 118.167 196.341 120.7 196.408 123.1C196.474 125.567 196.574 127.633 196.708 129.3H186.108ZM208.908 105.3C207.108 105.3 205.341 104.967 203.608 104.3C201.941 103.7 200.374 102.667 198.908 101.2C197.508 99.7333 196.174 97.8333 194.908 95.5H193.708L194.408 93.4C196.474 95.8667 198.341 97.6 200.008 98.6C201.741 99.6 203.741 100.1 206.008 100.1C208.141 100.1 210.041 99.4 211.708 98C213.441 96.6 214.808 94.4667 215.808 91.6C216.808 88.7333 217.308 85.1 217.308 80.7C217.308 74.1667 216.208 69.4667 214.008 66.6C211.874 63.7333 209.141 62.3 205.808 62.3C204.341 62.3 202.941 62.6333 201.608 63.3C200.341 63.9667 199.141 64.9 198.008 66.1C196.874 67.2333 195.774 68.5667 194.708 70.1L194.108 67.6H195.208C196.208 65.5333 197.408 63.7333 198.808 62.2C200.274 60.6667 201.908 59.4667 203.708 58.6C205.574 57.6667 207.641 57.2 209.908 57.2C213.241 57.2 216.241 58.0667 218.908 59.8C221.574 61.5333 223.674 64.1 225.208 67.5C226.808 70.8333 227.608 75.0333 227.608 80.1C227.608 85.3667 226.774 89.9 225.108 93.7C223.508 97.4333 221.274 100.3 218.408 102.3C215.608 104.3 212.441 105.3 208.908 105.3Z" fill="#F9BB1F"/>
<path d="M43.5072 13.9292C42.0832 11.58 39.7954 9.88574 37.1459 9.21804C34.4963 8.55033 31.7013 8.96374 29.3742 10.3676C29.097 10.5352 28.8293 10.7187 28.5705 10.9098C26.9406 9.81173 25.0375 9.20022 23.0841 9.14689C21.1306 9.09357 19.2078 9.60063 17.5409 10.6087C15.8739 11.6168 14.5318 13.0841 13.6717 14.8388C12.8117 16.5935 12.4693 18.5629 12.6847 20.5164C12.3953 20.6568 12.1085 20.8086 11.8312 20.9763C9.84037 22.1809 8.32301 24.0343 7.52857 26.2318C6.73413 28.4294 6.7099 30.8403 7.45986 33.0682C8.20983 35.2961 9.68935 37.2085 11.6552 38.491C13.6211 39.7735 15.9563 40.3497 18.277 40.1249L22.6246 47.3143C23.0309 47.9861 23.6845 48.4707 24.4418 48.6616C25.1991 48.8524 25.9979 48.7338 26.6626 48.3318L46.7117 36.2076C47.3764 35.8057 47.8524 35.1533 48.0351 34.394C48.2178 33.6348 48.0922 32.8308 47.686 32.159L43.3384 24.9696C44.4013 23.3431 44.9813 21.4429 45.0111 19.489C45.041 17.5352 44.5196 15.6075 43.5072 13.9292ZM45.1798 33.6745L25.1307 45.7987L21.2456 39.3741C21.6975 39.1843 22.1348 38.9617 22.5542 38.7081L40.0971 28.0994C40.5165 27.8458 40.9167 27.5619 41.2947 27.2498L45.1798 33.6745ZM38.5653 25.5663L36.4116 26.8687L35.1626 22.8543C35.0412 22.4858 34.781 22.1787 34.4382 21.999C34.0953 21.8194 33.6973 21.7816 33.3298 21.8938C32.9623 22.0061 32.6547 22.2593 32.4733 22.599C32.292 22.9388 32.2513 23.3377 32.3602 23.71L33.8271 28.4316L31.0469 30.1129L28.7491 26.3132C28.546 25.9773 28.2191 25.735 27.8405 25.6396C27.4619 25.5441 27.0625 25.6034 26.7301 25.8044C26.3978 26.0054 26.1598 26.3316 26.0684 26.7112C25.977 27.0908 26.0398 27.4928 26.243 27.8287L28.5407 31.6284L25.7605 33.3097L22.2604 29.8176C22.1238 29.6765 21.9608 29.564 21.781 29.4864C21.6013 29.4089 21.4082 29.368 21.2133 29.366C21.0183 29.3641 20.8252 29.4012 20.6454 29.4752C20.4656 29.5492 20.3025 29.6585 20.1658 29.7969C20.029 29.9353 19.9214 30.0999 19.849 30.2812C19.7766 30.4625 19.7411 30.6567 19.7443 30.8527C19.7476 31.0486 19.7897 31.2423 19.8681 31.4225C19.9465 31.6026 20.0596 31.7656 20.2009 31.902L23.176 34.8726L21.0223 36.175C19.3606 37.1799 17.3636 37.4764 15.4704 36.9993C13.5772 36.5222 11.943 35.3106 10.9274 33.631C9.91168 31.9515 9.5977 29.9415 10.0545 28.0433C10.5113 26.1452 11.7014 24.5143 13.3631 23.5094L13.4539 23.4545C13.6469 23.9105 13.8726 24.3522 14.129 24.776C14.3321 25.1119 14.659 25.3542 15.0376 25.4496C15.4162 25.545 15.8157 25.4857 16.148 25.2848C16.4803 25.0838 16.7184 24.7576 16.8097 24.378C16.9011 23.9983 16.8383 23.5963 16.6351 23.2604C15.6195 21.5809 15.3055 19.5709 15.7623 17.6727C16.2191 15.7746 17.4092 14.1437 19.0709 13.1388C20.7326 12.1339 22.7296 11.8374 24.6228 12.3145C26.516 12.7916 28.1502 14.0032 29.1658 15.6828C29.369 16.0187 29.6958 16.261 30.0745 16.3564C30.4531 16.4519 30.8525 16.3926 31.1848 16.1916C31.5172 15.9906 31.7552 15.6644 31.8466 15.2848C31.9379 14.9052 31.8751 14.5032 31.672 14.1673C31.4158 13.7433 31.1295 13.3384 30.8152 12.9556L30.9061 12.9007C32.5677 11.8958 34.5648 11.5993 36.458 12.0764C38.3512 12.5535 39.9854 13.7651 41.001 15.4447C42.0167 17.1242 42.3307 19.1342 41.8739 21.0324C41.4171 22.9306 40.227 24.5615 38.5653 25.5663Z" fill="#09090B"/>
</svg>
